# xmcd
#
# Track frame offsets: 
#        150
#        14419
#        27745
#        40468
#        55086
#        84999
#        102004
#        122366
#        151900
#        170004
#        187850
#        200155
#        213798
#        232792
#        243790
#        260956
#        275778
#        292485
#        313677
#        330819
#
# Disc length: 4582 seconds
#
# Revision: 0
# Processed by: cddbd v1.5.2PL0 Copyright (c) Steve Scherf et al.
# Submitted via: ExactAudioCopy v1.0b1
#
DISCID=1a11e414
DTITLE=Best of Blues - Best of Blues -Women in Blues CD 4
DYEAR=2010
DGENRE=Blues
TTITLE0=Billie Holyday - As time goes by
TTITLE1=Bessie Smith - Nobody knows you when you're down
TTITLE2=Willie Mae"Big Mama" Thornton - Hound dog
TTITLE3=Dinah Washington - Long John blues
TTITLE4=Etta James - Ball and chain
TTITLE5=Marianne Faithfull - It's all over now baby blues
TTITLE6=Koko Taylor - 63 year old mama
TTITLE7=Katie Webster - On the run
TTITLE8=Marcia Ball - I'm coming down with the blues
TTITLE9=Deborah Coleman - The dream
TTITLE10=Marie Knight - You got to move
TTITLE11=Memphis Mininnie - Me and my chauffeur
TTITLE12=Pura Fe' - Wait till you come back again
TTITLE13=Marie Manning - Hard luck and trouble
TTITLE14=Beverly Jo Scott - Tennesse tears
TTITLE15=Carolina Chocolate Drops - Black eye blues
TTITLE16=Demi Evans - Trouble in mind
TTITLE17=Saffire, The Uppity Blues Women - Blue lullabye
TTITLE18=Cora Mae Bryant - Ticket Agent
TTITLE19=Ma Rainey - Don't fish in my sea
EXTD=
EXTT0=
EXTT1=
EXTT2=
EXTT3=
EXTT4=
EXTT5=
EXTT6=
EXTT7=
EXTT8=
EXTT9=
EXTT10=
EXTT11=
EXTT12=
EXTT13=
EXTT14=
EXTT15=
EXTT16=
EXTT17=
EXTT18=
EXTT19=
PLAYORDER=
